<?xml version="1.0" standalone="no"?>
<!DOCTYPE svg PUBLIC "-//W3C//DTD SVG 20010904//EN"
 "http://www.w3.org/TR/2001/REC-SVG-20010904/DTD/svg10.dtd">
<svg version="1.0" xmlns="http://www.w3.org/2000/svg"
 width="225.000000pt" height="225.000000pt" viewBox="0 0 225.000000 225.000000"
 preserveAspectRatio="xMidYMid meet">
<metadata>
Created by potrace 1.16, written by Peter Selinger 2001-2019
</metadata>
<g transform="translate(0.000000,225.000000) scale(0.100000,-0.100000)"
fill="#000000" stroke="none">
<path d="M1365 1975 c-110 -24 -202 -74 -295 -161 l-45 -42 -75 25 c-147 50
-342 40 -475 -22 -75 -36 -168 -123 -200 -189 -67 -137 -44 -314 54 -416 20
-20 45 -42 56 -47 18 -11 16 -18 -42 -155 l-62 -143 52 -33 c76 -48 144 -79
212 -97 64 -16 213 -19 283 -6 23 5 42 6 42 2 0 -3 20 -101 45 -216 25 -116
45 -212 45 -214 0 -2 17 20 38 50 21 30 87 123 146 207 l108 153 37 -22 c209
-124 393 -230 396 -227 2 2 -18 102 -44 223 l-47 220 84 42 c46 24 105 58 131
77 116 85 197 209 208 319 l6 55 -59 12 c-33 6 -115 25 -183 41 -68 16 -125
29 -127 29 -2 0 -4 -15 -4 -32 0 -77 -70 -138 -158 -138 -103 0 -176 68 -188
176 -7 64 26 131 76 156 43 22 131 23 169 3 38 -19 81 -71 88 -106 l5 -29 67
52 c36 29 108 86 159 126 l92 73 -29 43 c-120 174 -348 259 -566 211z m248
-55 c52 -20 160 -96 155 -110 -2 -4 -30 -29 -62 -54 l-59 -46 -35 27 c-105 80
-251 66 -342 -33 -58 -63 -74 -105 -74 -194 0 -128 62 -233 168 -281 55 -25
167 -25 221 0 46 20 102 80 117 123 7 20 15 27 26 23 8 -3 44 -13 79 -22 72
-18 73 -20 25 -102 -134 -235 -499 -269 -692 -65 -52 55 -52 55 -48 23 13 -87
-36 -184 -120 -238 -105 -67 -268 -101 -393 -82 -64 10 -179 51 -179 64 0 4
60 140 64 144 1 1 31 -10 66 -24 124 -52 318 -29 365 43 8 13 15 39 15 58 0
59 -25 68 -213 78 -189 9 -252 25 -307 74 -109 99 -88 283 43 371 92 62 148
77 287 78 99 0 135 -4 175 -19 28 -10 54 -22 58 -26 5 -4 -7 -39 -27 -78 l-35
-70 -51 19 c-58 22 -196 26 -251 8 -53 -18 -89 -57 -89 -96 0 -54 28 -64 198
-75 185 -11 238 -21 296 -59 26 -16 45 -25 42 -20 -3 5 -10 40 -16 78 -29 206
83 395 280 473 108 42 218 46 313 10z"/>
</g>
</svg>
